<?xml version="1.0" encoding="utf-8"?>
<svg xmlns="http://www.w3.org/2000/svg" viewBox="0 0 50 50">
<path fill="currentColor" d="M28,32c-0.2,0-0.4-0.1-0.6-0.2l-8-6C19.1,25.6,19,25.3,19,25s0.1-0.6,0.4-0.8l8-6c0.4-0.3,1.1-0.2,1.4,0.2
	c0.3,0.4,0.2,1.1-0.2,1.4L21.7,25l6.9,5.2c0.4,0.3,0.5,1,0.2,1.4C28.6,31.9,28.3,32,28,32z M25,50C11.2,50,0,38.8,0,25h1.9
	c0,12.7,10.4,23.1,23.1,23.1V50z M50,25c0,13.8-11.2,25-25,25v-1.9c12.8,0,23.1-10.4,23.1-23.1H50z M25,0c13.8,0,25,11.2,25,25h-1.9
	C48.1,12.2,37.7,1.9,25,1.9V0z M25,1.9C12.3,1.9,1.9,12.3,1.9,25H0C0,11.2,11.2,0,25,0V1.9z"/>
</svg>
