<svg width="20" height="20" viewBox="0 0 20 20" fill="none" xmlns="http://www.w3.org/2000/svg">
<path fill-rule="evenodd" clip-rule="evenodd" d="M10 20C15.5228 20 20 15.5228 20 10C20 4.47715 15.5228 0 10 0C4.47715 0 0 4.47715 0 10C0 15.5228 4.47715 20 10 20ZM6.45269 6.39869C6.45269 8.26797 8.04898 9.79739 10 9.79739C11.951 9.79739 13.5473 8.26797 13.5473 6.39869C13.5473 4.52941 11.951 3 10 3C8.04898 3 6.45269 4.52941 6.45269 6.39869ZM8.13766 6.39869C8.13766 5.42157 8.98015 4.61438 10 4.61438C11.0199 4.61438 11.8623 5.42157 11.8623 6.39869C11.8623 7.37582 11.0199 8.18301 10 8.18301C8.98015 8.18301 8.13766 7.37582 8.13766 6.39869ZM12.5718 9.96732C12.9709 9.71242 13.503 9.7549 13.8134 10.1373C14.1237 10.4771 14.0351 11.0294 13.636 11.3268C13.6286 11.3268 13.5968 11.3455 13.5418 11.3779C13.2654 11.5408 12.4029 12.0489 11.1085 12.2614L13.4586 14.5556C13.8134 14.8954 13.8134 15.4052 13.4586 15.7451C13.2813 15.915 13.0596 16 12.8378 16C12.6161 16 12.3944 15.915 12.2171 15.7451L10 13.5784L7.78293 15.7451C7.60557 15.915 7.38386 16 7.16216 16C6.94045 16 6.71874 15.915 6.54138 15.7451C6.18665 15.4477 6.18665 14.8954 6.54138 14.5556L8.89147 12.2614C7.33952 12.049 6.40835 11.3693 6.36401 11.3268C5.96494 11.0294 5.87626 10.5196 6.18665 10.1373C6.49704 9.7549 7.02913 9.66994 7.4282 9.96732C7.4282 9.96732 8.40371 10.6471 10 10.6471C11.5963 10.6471 12.5718 9.96732 12.5718 9.96732Z"/>
</svg>
