<svg width="40" height="40" viewBox="0 0 40 40" fill="none" xmlns="http://www.w3.org/2000/svg">
<circle cx="20" cy="20" r="19.5" stroke="#EE732C"/>
<path d="M14.2739 13.3491H10.5882C10.2633 13.3491 10 13.0803 10 12.749C10 12.4177 10.2633 12.1489 10.5882 12.1489H14.2739C14.5988 12.1489 14.8621 12.4177 14.8621 12.749C14.8621 13.0803 14.5988 13.3491 14.2739 13.3491Z" fill="#EE732C"/>
<path d="M16.38 15.4974C14.8943 15.4974 13.6856 14.2644 13.6856 12.7488C13.6856 11.233 14.8943 10 16.38 10C17.8657 10 19.0744 11.233 19.0744 12.7488C19.0744 14.2644 17.8657 15.4974 16.38 15.4974ZM16.38 11.2002C15.543 11.2002 14.8621 11.895 14.8621 12.7488C14.8621 13.6027 15.543 14.2972 16.38 14.2972C17.217 14.2972 17.8979 13.6027 17.8979 12.7488C17.8979 11.895 17.217 11.2002 16.38 11.2002Z" fill="#EE732C"/>
<path d="M29.4116 13.3491H20.62C20.2951 13.3491 20.0317 13.0803 20.0317 12.749C20.0317 12.4177 20.2951 12.1489 20.62 12.1489H29.4116C29.7365 12.1489 29.9998 12.4177 29.9998 12.749C29.9998 13.0803 29.7365 13.3491 29.4116 13.3491Z" fill="#EE732C"/>
<path d="M24.2777 22.7485C22.792 22.7485 21.5834 21.5155 21.5834 20C21.5834 18.4845 22.792 17.2515 24.2777 17.2515C25.7635 17.2515 26.9721 18.4845 26.9721 20C26.9721 21.5155 25.7635 22.7485 24.2777 22.7485ZM24.2777 18.4517C23.4407 18.4517 22.7598 19.1461 22.7598 20C22.7598 20.8538 23.4407 21.5483 24.2777 21.5483C25.1148 21.5483 25.7957 20.8538 25.7957 20C25.7957 19.1461 25.1148 18.4517 24.2777 18.4517Z" fill="#EE732C"/>
<path d="M20.0381 20.6001H10.5882C10.2633 20.6001 10 20.3313 10 20C10 19.6687 10.2633 19.3999 10.5882 19.3999H20.0381C20.363 19.3999 20.6263 19.6687 20.6263 20C20.6263 20.3313 20.363 20.6001 20.0381 20.6001Z" fill="#EE732C"/>
<path d="M29.4116 20.6001H26.384C26.0591 20.6001 25.7958 20.3313 25.7958 20C25.7958 19.6687 26.0591 19.3999 26.384 19.3999H29.4116C29.7365 19.3999 29.9998 19.6687 29.9998 20C29.9998 20.3313 29.7365 20.6001 29.4116 20.6001Z" fill="#EE732C"/>
<path d="M15.722 30.0003C14.2362 30.0003 13.0276 28.7673 13.0276 27.2514C13.0276 25.7359 14.2362 24.5029 15.722 24.5029C17.2077 24.5029 18.4163 25.7359 18.4163 27.2514C18.4163 28.7673 17.2077 30.0003 15.722 30.0003ZM15.722 25.7031C14.885 25.7031 14.204 26.3976 14.204 27.2514C14.204 28.1053 14.885 28.8001 15.722 28.8001C16.559 28.8001 17.2399 28.1053 17.2399 27.2514C17.2399 26.3976 16.559 25.7031 15.722 25.7031Z" fill="#EE732C"/>
<path d="M29.4116 27.8515H19.9618C19.6369 27.8515 19.3735 27.5827 19.3735 27.2514C19.3735 26.9202 19.6369 26.6514 19.9618 26.6514H29.4116C29.7365 26.6514 29.9999 26.9202 29.9999 27.2514C29.9999 27.5827 29.7365 27.8515 29.4116 27.8515Z" fill="#EE732C"/>
<path d="M13.6158 27.8516H10.5882C10.2633 27.8516 10 27.5828 10 27.2514C10 26.9202 10.2633 26.6514 10.5882 26.6514H13.6158C13.9407 26.6514 14.204 26.9202 14.204 27.2514C14.204 27.5828 13.9407 27.8516 13.6158 27.8516Z" fill="#EE732C"/>
</svg>
