<svg xmlns="http://www.w3.org/2000/svg" xmlns:xlink="http://www.w3.org/1999/xlink"><symbol id="icon-close" viewBox="0 0 20 20"><path d="M.293 18.291a1 1 0 101.414 1.414L10 11.413l8.292 8.292a1 1 0 101.414-1.414l-8.292-8.292 8.292-8.292A1 1 0 1018.291.293L9.999 8.585 1.707.293A1 1 0 10.293 1.707L8.585 10 .293 18.291z"/></symbol><symbol id="icon-fb" viewBox="0 0 20 20">
<path fill-rule="evenodd" clip-rule="evenodd" d="M0 10.0558C0 15.0275 3.61083 19.1617 8.33333 20V12.7775H5.83333V10H8.33333V7.7775C8.33333 5.2775 9.94417 3.88917 12.2225 3.88917C12.9442 3.88917 13.7225 4 14.4442 4.11083V6.66667H13.1667C11.9442 6.66667 11.6667 7.2775 11.6667 8.05583V10H14.3333L13.8892 12.7775H11.6667V20C16.3892 19.1617 20 15.0283 20 10.0558C20 4.525 15.5 0 10 0C4.5 0 0 4.525 0 10.0558Z"/>
</symbol><symbol id="icon-ok" viewBox="0 0 20 20">
<path fill-rule="evenodd" clip-rule="evenodd" d="M10 20C15.5228 20 20 15.5228 20 10C20 4.47715 15.5228 0 10 0C4.47715 0 0 4.47715 0 10C0 15.5228 4.47715 20 10 20ZM6.45269 6.39869C6.45269 8.26797 8.04898 9.79739 10 9.79739C11.951 9.79739 13.5473 8.26797 13.5473 6.39869C13.5473 4.52941 11.951 3 10 3C8.04898 3 6.45269 4.52941 6.45269 6.39869ZM8.13766 6.39869C8.13766 5.42157 8.98015 4.61438 10 4.61438C11.0199 4.61438 11.8623 5.42157 11.8623 6.39869C11.8623 7.37582 11.0199 8.18301 10 8.18301C8.98015 8.18301 8.13766 7.37582 8.13766 6.39869ZM12.5718 9.96732C12.9709 9.71242 13.503 9.7549 13.8134 10.1373C14.1237 10.4771 14.0351 11.0294 13.636 11.3268C13.6286 11.3268 13.5968 11.3455 13.5418 11.3779C13.2654 11.5408 12.4029 12.0489 11.1085 12.2614L13.4586 14.5556C13.8134 14.8954 13.8134 15.4052 13.4586 15.7451C13.2813 15.915 13.0596 16 12.8378 16C12.6161 16 12.3944 15.915 12.2171 15.7451L10 13.5784L7.78293 15.7451C7.60557 15.915 7.38386 16 7.16216 16C6.94045 16 6.71874 15.915 6.54138 15.7451C6.18665 15.4477 6.18665 14.8954 6.54138 14.5556L8.89147 12.2614C7.33952 12.049 6.40835 11.3693 6.36401 11.3268C5.96494 11.0294 5.87626 10.5196 6.18665 10.1373C6.49704 9.7549 7.02913 9.66994 7.4282 9.96732C7.4282 9.96732 8.40371 10.6471 10 10.6471C11.5963 10.6471 12.5718 9.96732 12.5718 9.96732Z"/>
</symbol><symbol id="icon-vk" viewBox="0 0 20 20">
<path d="M10 0C4.47708 0 0 4.47708 0 10C0 15.5229 4.47708 20 10 20C15.5229 20 20 15.5229 20 10C20 4.47708 15.5229 0 10 0ZM13.8458 11.2823C13.8458 11.2823 14.7302 12.1552 14.9479 12.5604C14.9542 12.5688 14.9573 12.5771 14.9594 12.5812C15.0479 12.7302 15.0688 12.8458 15.025 12.9323C14.9521 13.076 14.7021 13.1469 14.6167 13.1531H13.0542C12.9458 13.1531 12.7188 13.125 12.4437 12.9354C12.2323 12.7875 12.024 12.5448 11.8208 12.3083C11.5177 11.9562 11.2552 11.6521 10.9906 11.6521C10.957 11.652 10.9236 11.6573 10.8917 11.6677C10.6917 11.7323 10.4354 12.0177 10.4354 12.7781C10.4354 13.0156 10.2479 13.1521 10.1156 13.1521H9.4C9.15625 13.1521 7.88646 13.0667 6.76146 11.8802C5.38437 10.4271 4.14479 7.5125 4.13437 7.48542C4.05625 7.29687 4.21771 7.19583 4.39375 7.19583H5.97187C6.18229 7.19583 6.25104 7.32396 6.29896 7.4375C6.35521 7.56979 6.56146 8.09583 6.9 8.6875C7.44896 9.65208 7.78542 10.0437 8.05521 10.0437C8.1058 10.0432 8.15548 10.0303 8.2 10.0062C8.55208 9.81042 8.48646 8.55521 8.47083 8.29479C8.47083 8.24583 8.46979 7.73333 8.28958 7.4875C8.16042 7.30937 7.94062 7.24167 7.80729 7.21667C7.86126 7.1422 7.93236 7.08182 8.01458 7.04062C8.25625 6.91979 8.69167 6.90208 9.12396 6.90208H9.36458C9.83333 6.90833 9.95417 6.93854 10.124 6.98125C10.4677 7.06354 10.475 7.28542 10.4448 8.04479C10.4354 8.26042 10.426 8.50417 10.426 8.79167C10.426 8.85417 10.4229 8.92083 10.4229 8.99167C10.4125 9.37812 10.4 9.81667 10.6729 9.99687C10.7085 10.0192 10.7497 10.0311 10.7917 10.0312C10.8865 10.0312 11.1719 10.0312 11.9448 8.70521C12.1832 8.27839 12.3903 7.83487 12.5646 7.37812C12.5802 7.35104 12.626 7.26771 12.6802 7.23542C12.7202 7.21504 12.7645 7.20467 12.8094 7.20521H14.6646C14.8667 7.20521 15.0052 7.23542 15.0312 7.31354C15.0771 7.4375 15.0229 7.81562 14.176 8.9625L13.7979 9.46146C13.0302 10.4677 13.0302 10.5188 13.8458 11.2823Z"/>
</symbol></svg>