<svg width="470" height="252" viewBox="0 0 470 252" fill="none" xmlns="http://www.w3.org/2000/svg">
<g clip-path="url(#clip0)">
<path d="M16.8112 233.734V251.213H13.5468V243.72H4.45694V251.213H1.19254V233.734H4.45694V240.949H13.5468V233.734H16.8112Z" fill="white"/>
<path d="M33.8645 247.167H25.0767L23.3453 251.213H19.9802L27.8904 233.734H31.1041L39.0382 251.213H35.6228L33.8645 247.167ZM32.7856 244.62L29.4708 236.98L26.1825 244.62H32.7856Z" fill="white"/>
<path d="M65.1845 233.734V251.213H61.9709V236.479H52.8542V251.213H49.64V233.734H65.1845Z" fill="white"/>
<path d="M70.6385 233.734H73.8526V246.144L83.2954 233.734H86.3315V251.213H83.1179V238.828L73.6776 251.213H70.6385V233.734Z" fill="white"/>
<path d="M98.2138 243.847H94.9494V251.213H91.7354V233.734H94.9494V241.049H98.3146L103.361 233.734H106.827L100.826 242.199L107.052 251.213H103.361L98.2138 243.847Z" fill="white"/>
<path d="M122.953 248.491V251.213H109.771V233.734H122.6V236.455H113.035V240.999H121.521V243.67H113.035V248.491H122.953Z" fill="white"/>
<path d="M149.499 246.368C149.499 249.39 147.216 251.213 142.846 251.213H134.509V233.734H142.369C146.285 233.734 148.645 235.332 148.645 238.227C148.676 239.066 148.443 239.893 147.98 240.592C147.516 241.291 146.844 241.826 146.06 242.122C147.048 242.297 147.94 242.822 148.572 243.602C149.204 244.382 149.533 245.364 149.499 246.368ZM137.723 241.2H142.093C144.201 241.2 145.331 240.35 145.331 238.728C145.331 237.08 144.201 236.231 142.093 236.231H137.723V241.2ZM146.211 246.118C146.211 244.372 145.004 243.573 142.746 243.573H137.723V248.716H142.746C145.004 248.716 146.211 247.866 146.211 246.118V246.118Z" fill="white"/>
<path d="M168.363 245.245C168.363 249.166 165.725 251.213 161.283 251.213H153.723V233.734H156.937V239.651H161.808C166.003 239.651 168.363 241.524 168.363 245.245ZM165.099 245.295C165.099 243.098 163.667 242.122 161.132 242.122H156.937V248.716H161.132C163.643 248.716 165.099 247.542 165.099 245.295ZM170.898 233.734H174.112V251.213H170.898V233.734Z" fill="white"/>
<path d="M178.24 242.472C178.345 240.621 178.987 238.84 180.088 237.348C181.19 235.857 182.702 234.719 184.439 234.075C186.177 233.431 188.065 233.308 189.871 233.722C191.677 234.136 193.324 235.068 194.609 236.404L192.5 238.377C191.909 237.72 191.184 237.198 190.374 236.845C189.564 236.492 188.687 236.316 187.804 236.33C186.987 236.312 186.174 236.457 185.413 236.757C184.652 237.058 183.959 237.507 183.375 238.079C182.79 238.652 182.325 239.335 182.008 240.089C181.691 240.844 181.528 241.654 181.528 242.472C181.528 243.291 181.691 244.101 182.008 244.855C182.325 245.61 182.79 246.293 183.375 246.865C183.959 247.437 184.652 247.887 185.413 248.187C186.174 248.487 186.987 248.633 187.804 248.614C188.69 248.629 189.569 248.452 190.38 248.094C191.19 247.736 191.914 247.206 192.5 246.542L194.609 248.54C193.324 249.877 191.677 250.809 189.871 251.223C188.065 251.637 186.177 251.514 184.439 250.87C182.702 250.226 181.189 249.088 180.088 247.596C178.987 246.105 178.345 244.324 178.24 242.472Z" fill="white"/>
<path d="M196.424 242.474C196.324 240.579 196.795 238.698 197.775 237.073C198.755 235.448 200.199 234.155 201.921 233.361C203.642 232.566 205.563 232.306 207.434 232.615C209.304 232.924 211.04 233.788 212.415 235.094C213.791 236.4 214.743 238.089 215.15 239.943C215.556 241.796 215.398 243.729 214.695 245.492C213.993 247.255 212.778 248.766 211.208 249.83C209.639 250.895 207.786 251.464 205.89 251.464C204.67 251.531 203.449 251.348 202.303 250.927C201.156 250.505 200.107 249.853 199.221 249.011C198.335 248.17 197.629 247.156 197.148 246.032C196.667 244.908 196.421 243.697 196.424 242.474ZM212.066 242.474C212.074 241.25 211.719 240.05 211.045 239.028C210.371 238.006 209.409 237.208 208.281 236.734C207.153 236.259 205.909 236.131 204.708 236.365C203.507 236.6 202.403 237.185 201.535 238.048C200.667 238.911 200.075 240.013 199.834 241.214C199.592 242.414 199.712 243.659 200.179 244.791C200.645 245.923 201.437 246.891 202.454 247.572C203.471 248.253 204.667 248.616 205.89 248.616C206.706 248.645 207.518 248.506 208.278 248.208C209.037 247.91 209.728 247.459 210.307 246.883C210.885 246.308 211.34 245.619 211.643 244.861C211.945 244.103 212.089 243.29 212.066 242.474Z" fill="white"/>
<path d="M225.932 243.847H222.668V251.213H219.454V233.734H222.668V241.049H226.033L231.079 233.734H234.545L228.544 242.199L234.77 251.213H231.079L225.932 243.847Z" fill="white"/>
<path d="M237.512 233.734H240.726V246.144L250.17 233.734H253.204V251.213H249.99V238.828L240.551 251.213H237.512V233.734Z" fill="white"/>
<path d="M260.645 233.734L264.787 239.578L268.934 233.734H272.747L266.85 242.122L273.224 251.213H269.358L264.787 244.844L260.241 251.213H256.476L262.83 242.249L256.879 233.734H260.645Z" fill="white"/>
<path d="M296.633 236.479H290.804V251.213H287.569V236.479H281.767V233.734H296.633V236.479Z" fill="white"/>
<path d="M313.107 248.491V251.213H299.928V233.734H312.757V236.455H303.189V240.999H311.675V243.67H303.189V248.491H313.107Z" fill="white"/>
<path d="M319.066 233.734L323.208 239.578L327.35 233.734H331.169L325.266 242.122L331.646 251.213H327.78L323.208 244.844L318.663 251.213H314.898L321.252 242.249L315.301 233.734H319.066Z" fill="white"/>
<path d="M349.928 233.734V251.213H346.666V243.72H337.576V251.213H334.309V233.734H337.576V240.949H346.666V233.734H349.928Z" fill="white"/>
<path d="M354.001 242.474C353.901 240.579 354.372 238.698 355.352 237.073C356.332 235.448 357.776 234.155 359.498 233.36C361.22 232.566 363.14 232.306 365.011 232.615C366.882 232.924 368.617 233.788 369.993 235.094C371.368 236.4 372.32 238.089 372.727 239.943C373.133 241.797 372.975 243.73 372.272 245.492C371.57 247.255 370.355 248.766 368.785 249.831C367.216 250.895 365.363 251.464 363.467 251.464C362.247 251.531 361.026 251.348 359.88 250.926C358.733 250.504 357.685 249.852 356.798 249.011C355.912 248.169 355.207 247.155 354.726 246.031C354.245 244.907 353.998 243.697 354.001 242.474ZM369.646 242.474C369.654 241.25 369.298 240.051 368.624 239.03C367.95 238.008 366.989 237.21 365.861 236.736C364.733 236.262 363.491 236.134 362.29 236.368C361.09 236.601 359.985 237.187 359.118 238.049C358.25 238.912 357.658 240.013 357.416 241.213C357.174 242.413 357.294 243.657 357.759 244.789C358.225 245.921 359.016 246.889 360.033 247.57C361.049 248.252 362.244 248.616 363.467 248.616C364.283 248.645 365.095 248.506 365.855 248.208C366.615 247.91 367.306 247.46 367.885 246.884C368.464 246.308 368.919 245.62 369.222 244.862C369.525 244.103 369.669 243.291 369.646 242.474Z" fill="white"/>
<path d="M391.544 233.734V251.213H388.33V236.479H381.404L381.25 240.848C381.028 247.742 379.999 251.463 376.207 251.463C375.605 251.445 375.008 251.361 374.425 251.213L374.648 248.391C374.892 248.462 375.146 248.496 375.401 248.491C377.538 248.491 378.191 245.894 378.365 240.975L378.614 233.734H391.544Z" fill="white"/>
<path d="M395.643 242.474C395.544 240.579 396.014 238.698 396.994 237.073C397.974 235.448 399.419 234.155 401.14 233.361C402.862 232.566 404.783 232.306 406.653 232.615C408.524 232.924 410.259 233.788 411.635 235.094C413.01 236.4 413.963 238.089 414.369 239.943C414.776 241.796 414.617 243.729 413.915 245.492C413.212 247.255 411.998 248.766 410.428 249.83C408.859 250.895 407.006 251.464 405.11 251.464C403.89 251.531 402.669 251.348 401.523 250.926C400.376 250.504 399.327 249.852 398.441 249.011C397.555 248.169 396.85 247.155 396.368 246.031C395.887 244.907 395.641 243.697 395.643 242.474ZM411.288 242.474C411.296 241.25 410.941 240.051 410.267 239.03C409.593 238.008 408.631 237.21 407.504 236.736C406.376 236.262 405.133 236.134 403.933 236.368C402.732 236.601 401.628 237.187 400.76 238.049C399.892 238.912 399.3 240.013 399.058 241.213C398.817 242.413 398.936 243.658 399.402 244.79C399.868 245.921 400.659 246.889 401.675 247.571C402.692 248.252 403.887 248.616 405.11 248.616C405.926 248.645 406.738 248.506 407.498 248.208C408.258 247.91 408.949 247.46 409.528 246.884C410.107 246.308 410.562 245.62 410.865 244.862C411.167 244.103 411.312 243.291 411.288 242.474Z" fill="white"/>
<path d="M430.603 236.479H421.89L421.916 251.213H418.702V233.734H430.63L430.603 236.479Z" fill="white"/>
<path d="M433.871 233.734H437.085V246.144L446.53 233.734H449.564V251.213H446.35V238.828L436.91 251.213H433.871V233.734Z" fill="white"/>
<path d="M454.995 233.734H458.209V246.144L467.654 233.734H470.688V251.213H467.474V238.828L458.034 251.213H454.995V233.734ZM458.235 228.939H460.521C460.548 230.186 461.348 230.862 462.807 230.862C464.239 230.862 465.093 230.186 465.141 228.939H467.4C467.379 231.26 465.819 232.56 462.807 232.56C459.768 232.56 458.262 231.26 458.235 228.939Z" fill="white"/>
<path d="M277.923 160.077C277.923 168.608 274.579 172.58 267.396 172.58H265.41V178.336H267.396C278.981 178.336 284.856 172.257 284.856 160.273V135.537H325.708V178.336H332.643V129.782H277.923V160.077Z" fill="white"/>
<path d="M398.38 163.793C397.962 169.378 393.816 172.58 387.002 172.58H363.947C354.808 172.58 350.368 168.232 350.368 159.286V154.471H405.349V146.662C405.349 138.783 399.9 129.583 384.541 129.583H364.045C350.659 129.583 343.435 138.789 343.435 147.452V160.273C343.435 172.257 350.438 178.336 364.243 178.336H388.184C402.921 178.336 405.075 168.25 405.318 163.914L405.375 162.917H398.447L398.38 163.793ZM398.414 148.635V148.715H350.368V148.635C350.223 146.911 350.444 145.176 351.016 143.544C351.588 141.911 352.499 140.419 353.688 139.163C354.877 137.908 356.318 136.919 357.916 136.26C359.514 135.601 361.234 135.288 362.961 135.341H385.23C387.005 135.203 388.788 135.453 390.457 136.074C392.126 136.695 393.64 137.671 394.894 138.936C396.148 140.2 397.113 141.723 397.721 143.397C398.328 145.072 398.565 146.859 398.414 148.635Z" fill="white"/>
<path d="M412.684 129.78V135.538H439.294V178.336H446.226V135.538H472.828V129.78H412.684Z" fill="white"/>
<path d="M352.841 98.8267H283.443V92.6241C283.443 87.6534 285.868 79.3126 302.12 79.3126H327.487C348.919 79.3126 352.841 72.2373 352.841 58.3009C352.841 40.1762 346.94 34.6502 327.587 34.6502H302.223C285.427 34.6502 277.408 40.5298 276.982 53.1517L276.951 54.1277H284.64L284.678 53.2243C285.042 44.8113 289.932 41.5345 302.12 41.5345H327.487C341.491 41.5345 345.759 45.4518 345.759 58.3009C345.759 68.9941 341.344 72.4259 327.587 72.4259H302.223C280.845 72.4259 276.358 83.4106 276.358 92.6241V105.716H352.841L352.841 98.8267Z" fill="white"/>
<path d="M390.281 105.716H421.126C438.933 105.716 446.379 102.372 446.379 81.6575V59.7213C446.379 38.6449 437.504 34.6502 421.126 34.6502H390.281C371.034 34.6502 364.212 41.2115 364.212 59.7213V81.6575C364.212 99.4205 371.034 105.716 390.281 105.716ZM438.239 81.6575C438.239 94.9093 435.182 97.7704 421.025 97.7704H390.181C376.351 97.7704 372.353 94.1579 372.353 81.6575V59.1144C372.353 46.606 376.684 42.5903 390.181 42.5903H421.025C434.699 42.5903 438.239 45.986 438.239 59.1144V81.6575Z" fill="white"/>
<path d="M243.133 211.538C242.967 211.538 242.802 211.505 242.648 211.442C242.494 211.378 242.354 211.284 242.236 211.166C242.118 211.048 242.024 210.908 241.961 210.754C241.897 210.6 241.864 210.435 241.864 210.268V2.71747C241.864 2.38068 241.998 2.05768 242.236 1.81954C242.474 1.58139 242.797 1.4476 243.133 1.4476C243.47 1.4476 243.792 1.58139 244.03 1.81954C244.268 2.05768 244.402 2.38068 244.402 2.71747V210.268C244.402 210.435 244.369 210.6 244.306 210.754C244.242 210.908 244.148 211.048 244.031 211.166C243.913 211.284 243.773 211.378 243.619 211.442C243.465 211.505 243.3 211.538 243.133 211.538Z" fill="white"/>
<path d="M-0.00409818 1.44991V211.537H209.907V1.44991H-0.00409818ZM202.986 204.612H6.91581V39.2117C6.85077 39.2125 6.78656 39.21 6.72194 39.2108L6.91581 39.1865V8.37529H202.986L202.986 204.612Z" fill="white"/>
<path d="M6.72084 39.2107C6.78547 39.2098 6.84967 39.2124 6.91472 39.2115V39.1863L6.72084 39.2107Z" fill="white"/>
<path d="M171.789 203.309C177.809 159.97 169.642 108.06 136.065 74.7374C102.516 41.4406 50.5563 33.2653 6.9155 39.1865V39.2117C49.0166 38.7497 86.8105 61.4784 118.402 92.8133C150.028 124.174 172.324 161.472 171.789 203.309Z" fill="white"/>
<path d="M58.17 93.5974H20.4064V106.592H32.4585V137.563H46.1389V106.592H58.17V93.5974Z" fill="white"/>
<path d="M76.3035 143.002H76.0559L71.4063 118.961H51.1501V162.914H62.7742V128.386H63.1351L69.9795 162.914H81.3434L88.385 128.386H88.704V162.914H100.937V118.961H80.7391L76.3035 143.002Z" fill="white"/>
<path d="M144.172 144.313H128.624L120.198 161.609H119.997V144.313H106.325V188.283H119.997V169.643H120.198L128.985 188.283H145.293L132.141 164.935L144.172 144.313Z" fill="white"/>
</g>
<defs>
<clipPath id="clip0">
<rect width="470" height="252" fill="white"/>
</clipPath>
</defs>
</svg>
