<svg width="50" height="50" viewBox="0 0 50 50" fill="none" xmlns="http://www.w3.org/2000/svg">
<path d="M36 23.5C36.8284 23.5 37.5 24.1716 37.5 25C37.5 25.8284 36.8284 26.5 36 26.5L36 23.5ZM12.9393 26.0607C12.3536 25.4749 12.3536 24.5251 12.9393 23.9393L22.4853 14.3934C23.0711 13.8076 24.0208 13.8076 24.6066 14.3934C25.1924 14.9792 25.1924 15.9289 24.6066 16.5147L16.1213 25L24.6066 33.4853C25.1924 34.0711 25.1924 35.0208 24.6066 35.6066C24.0208 36.1924 23.0711 36.1924 22.4853 35.6066L12.9393 26.0607ZM36 26.5L14 26.5L14 23.5L36 23.5L36 26.5Z"/>
</svg>
