<?xml version="1.0" encoding="utf-8"?>
<!-- Generator: Adobe Illustrator 24.0.2, SVG Export Plug-In . SVG Version: 6.00 Build 0)  -->
<svg version="1.1" id="Слой_1" xmlns="http://www.w3.org/2000/svg" xmlns:xlink="http://www.w3.org/1999/xlink" x="0px" y="0px"
	 viewBox="0 0 40 40" style="enable-background:new 0 0 40 40;" xml:space="preserve">
<style type="text/css">
	.st0{fill:#EE732C;}
</style>
<path class="st0" d="M20,40C9,40,0,31,0,20C0,9,9,0,20,0c11,0,20,9,20,20C40,31,31,40,20,40z M20,1C9.5,1,1,9.5,1,20s8.5,19,19,19
	s19-8.5,19-19S30.5,1,20,1z M14.3,13.3h-3.7c-0.3,0-0.6-0.3-0.6-0.6c0-0.3,0.3-0.6,0.6-0.6h3.7c0.3,0,0.6,0.3,0.6,0.6
	C14.9,13.1,14.6,13.3,14.3,13.3z M16.4,15.5c-1.5,0-2.7-1.2-2.7-2.7c0-1.5,1.2-2.7,2.7-2.7c1.5,0,2.7,1.2,2.7,2.7
	C19.1,14.3,17.9,15.5,16.4,15.5z M16.4,11.2c-0.8,0-1.5,0.7-1.5,1.5c0,0.9,0.7,1.5,1.5,1.5c0.8,0,1.5-0.7,1.5-1.5
	C17.9,11.9,17.2,11.2,16.4,11.2z M29.4,13.3h-8.8c-0.3,0-0.6-0.3-0.6-0.6c0-0.3,0.3-0.6,0.6-0.6h8.8c0.3,0,0.6,0.3,0.6,0.6
	C30,13.1,29.7,13.3,29.4,13.3z M24.3,22.7c-1.5,0-2.7-1.2-2.7-2.7s1.2-2.7,2.7-2.7c1.5,0,2.7,1.2,2.7,2.7S25.8,22.7,24.3,22.7z
	 M24.3,18.5c-0.8,0-1.5,0.7-1.5,1.5c0,0.9,0.7,1.5,1.5,1.5c0.8,0,1.5-0.7,1.5-1.5C25.8,19.1,25.1,18.5,24.3,18.5z M20,20.6h-9.4
	c-0.3,0-0.6-0.3-0.6-0.6s0.3-0.6,0.6-0.6H20c0.3,0,0.6,0.3,0.6,0.6S20.4,20.6,20,20.6z M29.4,20.6h-3c-0.3,0-0.6-0.3-0.6-0.6
	s0.3-0.6,0.6-0.6h3c0.3,0,0.6,0.3,0.6,0.6S29.7,20.6,29.4,20.6z M15.7,30c-1.5,0-2.7-1.2-2.7-2.7c0-1.5,1.2-2.7,2.7-2.7
	c1.5,0,2.7,1.2,2.7,2.7C18.4,28.8,17.2,30,15.7,30z M15.7,25.7c-0.8,0-1.5,0.7-1.5,1.5c0,0.9,0.7,1.5,1.5,1.5s1.5-0.7,1.5-1.5
	C17.2,26.4,16.6,25.7,15.7,25.7z M29.4,27.9H20c-0.3,0-0.6-0.3-0.6-0.6c0-0.3,0.3-0.6,0.6-0.6h9.4c0.3,0,0.6,0.3,0.6,0.6
	C30,27.6,29.7,27.9,29.4,27.9z M13.6,27.9h-3c-0.3,0-0.6-0.3-0.6-0.6c0-0.3,0.3-0.6,0.6-0.6h3c0.3,0,0.6,0.3,0.6,0.6
	C14.2,27.6,13.9,27.9,13.6,27.9z"/>
</svg>
