<?xml version="1.0" encoding="utf-8"?>
<svg xmlns="http://www.w3.org/2000/svg" x="0px" y="0px" viewBox="0 0 50 50" >
<path fill="currentColor" d="M22,18c0.2,0,0.4,0.1,0.6,0.2l8,6c0.3,0.2,0.4,0.5,0.4,0.8s-0.1,0.6-0.4,0.8l-8,6c-0.4,0.3-1.1,0.2-1.4-0.2
	c-0.3-0.4-0.2-1.1,0.2-1.4l6.9-5.2l-6.9-5.2c-0.4-0.3-0.5-1-0.2-1.4C21.4,18.1,21.7,18,22,18z M25,0c13.8,0,25,11.2,25,25h-1.9
	C48.1,12.3,37.7,1.9,25,1.9V0z M0,25C0,11.2,11.2,0,25,0v1.9C12.2,1.9,1.9,12.3,1.9,25C1.9,25,0,25,0,25z M25,50
	C11.2,50,0,38.8,0,25h1.9c0,12.8,10.4,23.1,23.1,23.1V50z M25,48.1c12.7,0,23.1-10.4,23.1-23.1H50c0,13.8-11.2,25-25,25V48.1z"/>
</svg>
