<svg width="131" height="75" viewBox="0 0 131 75" fill="none" xmlns="http://www.w3.org/2000/svg">
<path d="M60.618 62.0385C60.5784 62.0385 60.5392 62.0307 60.5027 62.0156C60.4661 62.0005 60.4328 61.9783 60.4049 61.9503C60.3769 61.9223 60.3547 61.889 60.3396 61.8524C60.3244 61.8159 60.3167 61.7767 60.3167 61.7371V12.4796C60.3167 12.3997 60.3485 12.323 60.405 12.2665C60.4615 12.21 60.5381 12.1782 60.6181 12.1782C60.698 12.1782 60.7746 12.21 60.8311 12.2665C60.8877 12.323 60.9194 12.3997 60.9194 12.4796V61.7371C60.9195 61.7767 60.9117 61.8159 60.8966 61.8525C60.8814 61.889 60.8592 61.9223 60.8312 61.9503C60.8032 61.9783 60.77 62.0005 60.7334 62.0156C60.6968 62.0307 60.6576 62.0385 60.618 62.0385V62.0385Z" fill="#EE732C"/>
<path d="M2.80542 12.2046V62.0122H52.6134V12.2046H2.80542ZM50.9713 60.3704H4.44732V21.1572C4.43192 21.1574 4.41672 21.1568 4.40142 21.157L4.44732 21.1512V13.8465H50.9713V60.3704Z" fill="#EE732C"/>
<path d="M4.40143 21.1572C4.41673 21.157 4.43193 21.1576 4.44733 21.1574V21.1514L4.40143 21.1572Z" fill="#EE732C"/>
<path d="M43.5688 60.0612C44.9973 49.7866 43.0594 37.4796 35.0922 29.5796C27.1315 21.6856 14.8025 19.7473 4.44733 21.1511V21.1571C14.4372 21.0475 23.405 26.4361 30.9011 33.865C38.4052 41.3 43.6957 50.1425 43.5688 60.0612Z" fill="#EE732C"/>
<path d="M16.61 34.0508H7.64899V37.1318H10.509V44.4738H13.755V37.1318H16.61V34.0508Z" fill="#EE732C"/>
<path d="M20.912 45.764H20.853L19.75 40.064H14.944V50.485H17.702V42.299H17.788L19.411 50.485H22.108L23.779 42.299H23.854V50.485H26.757V40.064H21.965L20.912 45.764Z" fill="#EE732C"/>
<path d="M37.016 46.0742H33.327L31.328 50.1752H31.279V46.0742H28.036V56.4992H31.279V52.0792H31.328L33.413 56.4992H37.282L34.161 50.9642L37.016 46.0742Z" fill="#EE732C"/>
<path d="M92.1156 34.7104H72.1328V32.7571C72.1328 31.2639 72.8537 28.7585 77.6799 28.7585H84.9833C91.0488 28.7585 92.1156 26.8641 92.1156 22.8826C92.1156 17.7349 90.5224 16.2466 85.0128 16.2466H77.7093C72.9187 16.2466 70.7298 17.838 70.6108 21.4066L70.6071 21.5133H72.485L72.4893 21.4146C72.5978 18.9116 74.1015 17.8901 77.6799 17.8901H84.9833C89.0942 17.8901 90.4138 19.1036 90.4138 22.8826C90.4138 26.0469 89.0507 27.115 85.0128 27.115H77.7093C72.9475 27.115 70.431 29.0658 70.431 32.7571V36.3546H92.1156L92.1156 34.7104Z" fill="#EE732C"/>
<path d="M103.064 36.3546H111.946C117.188 36.3546 119.048 35.3343 119.048 29.602V23.2912C119.048 17.3362 116.657 16.2466 111.946 16.2466H103.064C97.5786 16.2466 95.7271 18.0239 95.7271 23.2912V29.602C95.7271 34.6509 97.5786 36.3546 103.064 36.3546ZM117.042 29.602C117.042 33.5086 116.084 34.4068 111.916 34.4068H103.035C98.9718 34.4068 97.7326 33.2841 97.7326 29.602V23.1163C97.7326 19.4361 99.0706 18.1938 103.035 18.1938H111.916C115.941 18.1938 117.042 19.2521 117.042 23.1163V29.602Z" fill="#EE732C"/>
<path d="M70.4304 52.7368C70.4304 55.3484 69.3513 56.6183 67.1324 56.6183H66.7201V57.9698H67.1324C70.4967 57.9698 72.1322 56.2772 72.1322 52.7957V45.2904H84.5993V57.9698H86.3017V43.939H70.4304V52.7368Z" fill="#EE732C"/>
<path d="M101.866 43.8809H95.7897C91.9346 43.8809 89.8549 46.517 89.8549 48.9973V52.7959C89.8549 56.2774 91.815 57.97 95.848 57.97H102.947C107.015 57.97 107.766 55.3977 107.851 53.864L107.857 53.7554H106.153L106.146 53.8505C106.015 55.6093 104.721 56.6185 102.596 56.6185H95.7603C92.9714 56.6185 91.5567 55.2339 91.5567 52.5033V50.9003H107.859V48.7635C107.859 46.5109 106.29 43.8809 101.866 43.8809ZM106.157 49.3482V49.5488H91.5567V49.3482C91.5124 48.8139 91.5815 48.2762 91.7595 47.7705C91.9375 47.2648 92.2205 46.8025 92.5898 46.4138C92.9591 46.0252 93.4064 45.719 93.9024 45.5154C94.3983 45.3118 94.9318 45.2153 95.4676 45.2324H102.071C102.621 45.1896 103.173 45.267 103.69 45.4592C104.208 45.6513 104.677 45.9537 105.066 46.3452C105.454 46.7367 105.753 47.2081 105.942 47.7266C106.13 48.2451 106.203 48.7984 106.157 49.3482V49.3482Z" fill="#EE732C"/>
<path d="M110.389 43.939V45.291H118.278V57.97H119.98V45.291H127.868V43.939H110.389Z" fill="#EE732C"/>
</svg>
