<svg width="112" height="60" viewBox="0 0 112 60" fill="none" xmlns="http://www.w3.org/2000/svg">
<g clip-path="url(#clip0)">
<path d="M4.00608 55.6509V59.8126H3.22818V58.0287H1.06208V59.8126H0.28418V55.6509H1.06208V57.3688H3.22818V55.6509H4.00608Z" fill="#EE732C"/>
<path d="M8.06983 58.8493H5.97573L5.56313 59.8126H4.76123L6.64623 55.6509H7.41203L9.30273 59.8126H8.48883L8.06983 58.8493ZM7.81273 58.2428L7.02283 56.4238L6.23923 58.2428H7.81273Z" fill="#EE732C"/>
<path d="M15.5333 55.6509V59.8126H14.7675V56.3045H12.595V59.8126H11.8291V55.6509H15.5333Z" fill="#EE732C"/>
<path d="M16.833 55.6509H17.5989V58.6057L19.8491 55.6509H20.5726V59.8126H19.8068V56.8639L17.5572 59.8126H16.833V55.6509Z" fill="#EE732C"/>
<path d="M23.4042 58.0588H22.6263V59.8126H21.8604V55.6509H22.6263V57.3926H23.4282L24.6307 55.6509H25.4566L24.0266 57.6664L25.5103 59.8126H24.6307L23.4042 58.0588Z" fill="#EE732C"/>
<path d="M29.2993 59.1646V59.8126H26.1582V55.6509H29.2153V56.2988H26.9361V57.3807H28.9582V58.0168H26.9361V59.1646H29.2993Z" fill="#EE732C"/>
<path d="M35.6254 58.6591C35.6254 59.3787 35.0814 59.8126 34.04 59.8126H32.0532V55.6509H33.9261C34.8595 55.6509 35.4218 56.0314 35.4218 56.7208C35.4292 56.9204 35.3738 57.1173 35.2632 57.2838C35.1527 57.4502 34.9926 57.5776 34.8057 57.6482C35.0412 57.6896 35.2538 57.8148 35.4044 58.0005C35.555 58.1862 35.6335 58.4201 35.6254 58.6591ZM32.8192 57.4285H33.8605C34.3629 57.4285 34.632 57.2262 34.632 56.8401C34.632 56.4477 34.3629 56.2455 33.8605 56.2455H32.8192V57.4285ZM34.8418 58.5995C34.8418 58.1838 34.5543 57.9936 34.016 57.9936H32.8192V59.2181H34.016C34.5542 59.2181 34.8418 59.0157 34.8418 58.5995V58.5995Z" fill="#EE732C"/>
<path d="M40.1205 58.3916C40.1205 59.3253 39.4918 59.8126 38.4334 59.8126H36.6318V55.6509H37.3977V57.0598H38.5585C39.5581 57.0598 40.1205 57.5057 40.1205 58.3916ZM39.3427 58.4036C39.3427 57.8805 39.0014 57.6482 38.3974 57.6482H37.3977V59.218H38.3974C38.9958 59.218 39.3427 58.9385 39.3427 58.4036ZM40.7246 55.6509H41.4905V59.8126H40.7246V55.6509Z" fill="#EE732C"/>
<path d="M42.4741 57.7314C42.4991 57.2906 42.6522 56.8666 42.9147 56.5115C43.1771 56.1563 43.5374 55.8855 43.9515 55.7321C44.3656 55.5787 44.8154 55.5495 45.2459 55.648C45.6763 55.7465 46.0687 55.9684 46.3748 56.2866L45.8724 56.7563C45.7315 56.6 45.5587 56.4756 45.3656 56.3915C45.1726 56.3075 44.9638 56.2657 44.7533 56.269C44.5585 56.2646 44.3648 56.2992 44.1835 56.3708C44.0023 56.4423 43.8371 56.5493 43.6978 56.6855C43.5585 56.8218 43.4477 56.9845 43.3722 57.1641C43.2966 57.3437 43.2577 57.5366 43.2577 57.7314C43.2577 57.9263 43.2966 58.1192 43.3722 58.2988C43.4477 58.4784 43.5585 58.6411 43.6978 58.7773C43.8371 58.9136 44.0023 59.0206 44.1835 59.0921C44.3648 59.1636 44.5585 59.1982 44.7533 59.1938C44.9644 59.1974 45.1738 59.1551 45.367 59.0699C45.5603 58.9847 45.7327 58.8586 45.8724 58.7003L46.3748 59.1762C46.0687 59.4944 45.6763 59.7164 45.2459 59.8149C44.8154 59.9134 44.3656 59.8842 43.9515 59.7308C43.5374 59.5775 43.177 59.3066 42.9146 58.9514C42.6522 58.5963 42.4991 58.1723 42.4741 57.7314Z" fill="#EE732C"/>
<path d="M46.8073 57.732C46.7836 57.2808 46.8958 56.8328 47.1293 56.446C47.3628 56.0592 47.7069 55.7513 48.1173 55.5621C48.5276 55.3729 48.9852 55.3111 49.431 55.3846C49.8768 55.4582 50.2903 55.6638 50.6181 55.9748C50.9459 56.2858 51.1728 56.6879 51.2697 57.1293C51.3665 57.5706 51.3288 58.0308 51.1614 58.4505C50.994 58.8702 50.7046 59.23 50.3305 59.4835C49.9565 59.737 49.515 59.8725 49.0632 59.8725C48.7725 59.8885 48.4816 59.8449 48.2083 59.7445C47.935 59.644 47.6851 59.4889 47.4739 59.2885C47.2627 59.0881 47.0946 58.8467 46.98 58.579C46.8654 58.3114 46.8066 58.0231 46.8073 57.732ZM50.5349 57.732C50.5368 57.4404 50.4521 57.1549 50.2915 56.9116C50.1309 56.6682 49.9017 56.4781 49.6328 56.3652C49.364 56.2523 49.0677 56.2218 48.7816 56.2775C48.4954 56.3333 48.2322 56.4727 48.0254 56.6782C47.8186 56.8837 47.6774 57.146 47.6199 57.4319C47.5624 57.7177 47.591 58.0141 47.7022 58.2837C47.8133 58.5532 48.002 58.7836 48.2443 58.9458C48.4866 59.1079 48.7717 59.1945 49.0632 59.1944C49.2575 59.2012 49.4511 59.1681 49.6322 59.0971C49.8132 59.0261 49.9777 58.9188 50.1156 58.7818C50.2535 58.6447 50.3619 58.4809 50.434 58.3003C50.5061 58.1198 50.5405 57.9263 50.5349 57.732Z" fill="#EE732C"/>
<path d="M53.8391 58.0588H53.0612V59.8126H52.2954V55.6509H53.0612V57.3926H53.8631L55.0656 55.6509H55.8915L54.4615 57.6664L55.9452 59.8126H55.0656L53.8391 58.0588Z" fill="#EE732C"/>
<path d="M56.5986 55.6509H57.3645V58.6057L59.615 55.6509H60.3379V59.8126H59.572V56.8639L57.3227 59.8126H56.5986V55.6509Z" fill="#EE732C"/>
<path d="M62.1111 55.6509L63.0981 57.0423L64.0864 55.6509H64.995L63.5897 57.6482L65.1088 59.8126H64.1875L63.0981 58.2962L62.015 59.8126H61.1177L62.6318 57.6783L61.2138 55.6509H62.1111Z" fill="#EE732C"/>
<path d="M70.6869 56.3045H69.298V59.8126H68.5271V56.3045H67.1445V55.6509H70.6869V56.3045Z" fill="#EE732C"/>
<path d="M74.6127 59.1646V59.8126H71.4722V55.6509H74.5292V56.2988H72.2493V57.3807H74.2714V58.0168H72.2493V59.1646H74.6127Z" fill="#EE732C"/>
<path d="M76.0329 55.6509L77.0199 57.0423L78.0069 55.6509H78.9169L77.5103 57.6482L79.0306 59.8126H78.1093L77.0199 58.2962L75.9368 59.8126H75.0396L76.5536 57.6783L75.1356 55.6509H76.0329Z" fill="#EE732C"/>
<path d="M83.387 55.6509V59.8126H82.6097V58.0287H80.4435V59.8126H79.665V55.6509H80.4435V57.3688H82.6097V55.6509H83.387Z" fill="#EE732C"/>
<path d="M84.3576 57.732C84.3339 57.2808 84.4461 56.8328 84.6796 56.446C84.9131 56.0592 85.2573 55.7513 85.6676 55.5621C86.0779 55.3729 86.5355 55.3111 86.9813 55.3846C87.4272 55.4582 87.8407 55.6638 88.1684 55.9748C88.4962 56.2858 88.7232 56.688 88.82 57.1293C88.9168 57.5707 88.8791 58.0309 88.7117 58.4506C88.5442 58.8703 88.2548 59.2301 87.8808 59.4836C87.5067 59.737 87.0652 59.8725 86.6134 59.8725C86.3227 59.8884 86.0318 59.8448 85.7586 59.7443C85.4853 59.6439 85.2355 59.4887 85.0243 59.2883C84.8131 59.0879 84.645 58.8465 84.5304 58.5789C84.4158 58.3113 84.357 58.0231 84.3576 57.732ZM88.0858 57.732C88.0877 57.4406 88.0029 57.1551 87.8424 56.9119C87.6818 56.6687 87.4526 56.4786 87.1839 56.3657C86.9152 56.2529 86.619 56.2224 86.333 56.278C86.0469 56.3337 85.7838 56.4731 85.577 56.6785C85.3702 56.8838 85.229 57.146 85.1714 57.4317C85.1138 57.7174 85.1423 58.0137 85.2533 58.2832C85.3643 58.5527 85.5528 58.7832 85.795 58.9454C86.0371 59.1076 86.322 59.1943 86.6134 59.1944C86.8078 59.2013 87.0015 59.1682 87.1825 59.0973C87.3636 59.0263 87.5282 58.919 87.6662 58.782C87.8042 58.6449 87.9126 58.481 87.9848 58.3005C88.057 58.1199 88.0913 57.9264 88.0858 57.732Z" fill="#EE732C"/>
<path d="M93.3042 55.6509V59.8126H92.5383V56.3045H90.8878L90.8511 57.3449C90.7981 58.9862 90.5529 59.8722 89.6493 59.8722C89.506 59.8679 89.3636 59.8479 89.2246 59.8126L89.2777 59.1407C89.336 59.1577 89.3965 59.1657 89.4572 59.1646C89.9665 59.1646 90.122 58.5461 90.1636 57.3751L90.223 55.6509H93.3042Z" fill="#EE732C"/>
<path d="M94.2809 57.732C94.2572 57.2808 94.3694 56.8328 94.6029 56.446C94.8364 56.0592 95.1806 55.7513 95.5909 55.5621C96.0012 55.3729 96.4588 55.3111 96.9046 55.3846C97.3504 55.4582 97.764 55.6638 98.0917 55.9748C98.4195 56.2858 98.6465 56.6879 98.7433 57.1293C98.8402 57.5706 98.8025 58.0308 98.635 58.4505C98.4676 58.8702 98.1782 59.23 97.8042 59.4835C97.4301 59.737 96.9887 59.8725 96.5368 59.8725C96.2461 59.8884 95.9553 59.8448 95.682 59.7443C95.4087 59.6439 95.1589 59.4887 94.9477 59.2883C94.7365 59.0879 94.5684 58.8466 94.4538 58.5789C94.3391 58.3113 94.2803 58.0231 94.2809 57.732ZM98.0091 57.732C98.011 57.4405 97.9263 57.1551 97.7657 56.9119C97.6051 56.6686 97.376 56.4786 97.1072 56.3657C96.8385 56.2529 96.5423 56.2224 96.2563 56.278C95.9702 56.3337 95.7071 56.4731 95.5003 56.6785C95.2935 56.8839 95.1524 57.146 95.0948 57.4317C95.0371 57.7175 95.0657 58.0138 95.1767 58.2833C95.2877 58.5528 95.4762 58.7832 95.7184 58.9454C95.9605 59.1076 96.2454 59.1943 96.5368 59.1944C96.7312 59.2012 96.9249 59.1682 97.106 59.0972C97.287 59.0263 97.4516 58.919 97.5896 58.7819C97.7276 58.6449 97.836 58.481 97.9082 58.3004C97.9803 58.1199 98.0147 57.9264 98.0091 57.732Z" fill="#EE732C"/>
<path d="M102.612 56.3045H100.535L100.542 59.8126H99.7759V55.6509H102.618L102.612 56.3045Z" fill="#EE732C"/>
<path d="M103.391 55.6509H104.156V58.6057L106.407 55.6509H107.13V59.8126H106.364V56.8639L104.115 59.8126H103.391V55.6509Z" fill="#EE732C"/>
<path d="M108.424 55.6509H109.19V58.6057L111.441 55.6509H112.164V59.8126H111.398V56.8639L109.149 59.8126H108.424V55.6509ZM109.197 54.5093H109.741C109.748 54.8063 109.938 54.9671 110.286 54.9671C110.627 54.9671 110.831 54.8063 110.842 54.5093H111.38C111.375 55.0619 111.004 55.3714 110.286 55.3714C109.562 55.3714 109.203 55.0619 109.197 54.5093Z" fill="#EE732C"/>
<path d="M66.2285 38.1135C66.2285 40.1448 65.4317 41.0904 63.72 41.0904H63.2466V42.4609H63.72C66.4806 42.4609 67.8805 41.0136 67.8805 38.1602V32.2708H77.6156V42.4609H79.2682V30.9004H66.2285V38.1135Z" fill="#EE732C"/>
<path d="M94.9332 38.9982C94.8336 40.328 93.8456 41.0904 92.2218 41.0904H86.7278C84.5501 41.0904 83.492 40.0551 83.492 37.9253V36.7787H96.5938V34.9195C96.5938 33.0436 95.2953 30.853 91.6353 30.853H86.751C83.5613 30.853 81.8398 33.0449 81.8398 35.1076V38.1602C81.8398 41.0136 83.5085 42.4609 86.7984 42.4609H92.5033C96.0152 42.4609 96.5285 40.0594 96.5863 39.0271L96.5999 38.7898H94.9491L94.9332 38.9982ZM94.9412 35.3892V35.4082H83.492V35.3892C83.4574 34.9788 83.5101 34.5657 83.6464 34.1771C83.7828 33.7885 83.9997 33.433 84.2831 33.1342C84.5665 32.8353 84.9098 32.5997 85.2907 32.4428C85.6715 32.286 86.0812 32.2115 86.4929 32.2241H91.7994C92.2224 32.1913 92.6474 32.2508 93.0451 32.3985C93.4428 32.5463 93.8036 32.7788 94.1024 33.0799C94.4013 33.381 94.6311 33.7435 94.776 34.1423C94.9208 34.541 94.9772 34.9665 94.9412 35.3892Z" fill="#EE732C"/>
<path d="M98.3418 30.8999V32.2709H104.683V42.4609H106.335V32.2709H112.674V30.8999H98.3418Z" fill="#EE732C"/>
<path d="M84.0813 23.5301H67.5438V22.0533C67.5438 20.8698 68.1217 18.8839 71.9945 18.8839H78.0394C83.1467 18.8839 84.0813 17.1993 84.0813 13.8811C84.0813 9.5657 82.6752 8.25 78.0634 8.25H72.0191C68.0166 8.25 66.1057 9.6499 66.0043 12.6551L65.9969 12.8875H67.8291L67.8383 12.6724C67.925 10.6693 69.0901 9.8891 71.9945 9.8891H78.0394C81.3767 9.8891 82.3936 10.8218 82.3936 13.8811C82.3936 16.4271 81.3416 17.2442 78.0634 17.2442H72.0191C66.9247 17.2442 65.8555 19.8596 65.8555 22.0533V25.1705H84.0813L84.0813 23.5301Z" fill="#EE732C"/>
<path d="M93.0032 25.1705H100.353C104.597 25.1705 106.371 24.3743 106.371 19.4422V14.2193C106.371 9.2011 104.256 8.25 100.353 8.25H93.0032C88.4166 8.25 86.791 9.8122 86.791 14.2193V19.4422C86.791 23.6715 88.4166 25.1705 93.0032 25.1705ZM104.432 19.4422C104.432 22.5974 103.703 23.2786 100.329 23.2786H92.9792C89.6837 23.2786 88.7308 22.4185 88.7308 19.4422V14.0748C88.7308 11.0966 89.763 10.1405 92.9792 10.1405H100.329C103.588 10.1405 104.432 10.949 104.432 14.0748V19.4422Z" fill="#EE732C"/>
<path d="M57.9381 50.3663C57.8984 50.3663 57.8591 50.3585 57.8224 50.3433C57.7857 50.3281 57.7523 50.3058 57.7243 50.2778C57.6962 50.2497 57.6739 50.2163 57.6587 50.1796C57.6435 50.1429 57.6357 50.1036 57.6357 50.0639V0.647077C57.6357 0.566888 57.6676 0.489984 57.7243 0.433283C57.781 0.376581 57.8579 0.344727 57.9381 0.344727C58.0183 0.344727 58.0952 0.376581 58.1519 0.433283C58.2086 0.489984 58.2404 0.566888 58.2404 0.647077V50.0639C58.2405 50.1036 58.2327 50.1429 58.2175 50.1796C58.2023 50.2163 58.1801 50.2497 58.152 50.2777C58.1239 50.3058 58.0906 50.3281 58.0539 50.3433C58.0172 50.3585 57.9779 50.3663 57.9381 50.3663Z" fill="#EE732C"/>
<path d="M-0.000976562 0.345215V50.3661H50.0203V0.345215H-0.000976562ZM48.3712 48.7172H1.64802V9.33611C1.63252 9.33632 1.61722 9.33571 1.60182 9.33591L1.64802 9.33011V1.99411H48.3712L48.3712 48.7172Z" fill="#EE732C"/>
<path d="M1.60156 9.33588C1.61696 9.33568 1.63226 9.33628 1.64776 9.33608V9.33008L1.60156 9.33588Z" fill="#EE732C"/>
<path d="M40.9369 48.4068C42.3715 38.0882 40.4254 25.7285 32.424 17.7946C24.4292 9.86681 12.0474 7.92031 1.64795 9.33011V9.33611C11.6805 9.22611 20.6868 14.6377 28.215 22.0984C35.7513 29.5652 41.0643 38.4456 40.9369 48.4068Z" fill="#EE732C"/>
<path d="M13.8618 22.2852H4.86279V25.3792H7.73479V32.7532H10.9948V25.3792H13.8618V22.2852Z" fill="#EE732C"/>
<path d="M18.183 34.0482H18.124L17.016 28.3242H12.189V38.7892H14.959V30.5682H15.045L16.676 38.7892H19.384L21.062 30.5682H21.138V38.7892H24.053V28.3242H19.24L18.183 34.0482Z" fill="#EE732C"/>
<path d="M34.3559 34.3604H30.6509L28.6429 38.4784H28.5949V34.3604H25.3369V44.8293H28.5949V40.3913H28.6429L30.7369 44.8293H34.6229L31.4889 39.2704L34.3559 34.3604Z" fill="#EE732C"/>
</g>
<defs>
<clipPath id="clip0">
<rect width="112" height="60" fill="white"/>
</clipPath>
</defs>
</svg>
