<?xml version="1.0" standalone="no"?>
<!DOCTYPE svg PUBLIC "-//W3C//DTD SVG 20010904//EN"
 "http://www.w3.org/TR/2001/REC-SVG-20010904/DTD/svg10.dtd">
<svg version="1.0" xmlns="http://www.w3.org/2000/svg"
 width="700.000000pt" height="700.000000pt" viewBox="0 0 700.000000 700.000000"
 preserveAspectRatio="xMidYMid meet">
<metadata>
Created by potrace 1.11, written by Peter Selinger 2001-2013
</metadata>
<g transform="translate(0.000000,700.000000) scale(0.100000,-0.100000)"
fill="#000000" stroke="none">
<path d="M38 6952 l-38 -3 0 -3430 c0 -3259 1 -3429 18 -3430 22 0 6789 0
6822 0 l25 1 0 3430 c0 3046 -2 3430 -15 3431 -71 2 -6784 3 -6812 1z m6599
-3433 l3 -3206 -3207 1 -3207 1 -1 3200 c0 1760 0 3203 2 3206 1 3 1443 5
3205 5 l3203 -1 2 -3206z"/>
<path d="M858 5775 c-2 -1 -61 -5 -133 -9 -131 -7 -192 -12 -275 -21 -25 -3
-73 -8 -108 -11 -34 -4 -60 -9 -58 -11 3 -3 53 -6 113 -8 104 -3 219 -10 293
-20 19 -3 55 -7 80 -10 51 -6 118 -16 140 -20 8 -2 62 -13 120 -24 58 -12 148
-33 200 -46 52 -14 104 -28 114 -30 11 -3 90 -28 175 -56 646 -214 1311 -611
1938 -1156 288 -250 656 -618 853 -853 25 -30 52 -61 60 -70 8 -8 49 -58 91
-110 397 -497 676 -964 872 -1460 86 -217 174 -509 201 -663 3 -15 7 -35 10
-45 3 -9 7 -35 11 -56 3 -21 7 -48 10 -60 2 -12 7 -39 10 -61 3 -22 7 -53 10
-70 5 -32 12 -90 21 -190 6 -61 12 -188 13 -279 1 -69 8 -54 15 34 3 41 9 93
11 115 35 268 40 875 10 1170 -2 22 -7 65 -10 95 -12 122 -30 250 -56 395 -11
61 -22 119 -24 130 -1 11 -8 43 -15 70 -6 28 -14 61 -16 75 -28 153 -162 577
-238 755 -237 551 -517 967 -892 1327 -432 413 -990 732 -1632 932 -72 23
-206 60 -252 71 -8 2 -53 12 -100 23 -47 12 -98 23 -115 27 -16 3 -41 8 -55
11 -28 6 -227 40 -280 48 -30 5 -105 14 -240 31 -19 2 -69 7 -110 10 -41 3
-102 8 -135 11 -59 6 -622 14 -627 9z"/>
<path d="M669 3893 c-3 -168 -1 -361 4 -369 3 -5 89 -9 192 -8 131 0 188 -3
191 -11 3 -6 6 -234 7 -506 l2 -494 223 0 222 0 0 505 0 506 195 0 c123 -1
195 3 196 9 0 6 1 100 1 210 l1 200 -617 3 -616 2 -1 -47z"/>
<path d="M1715 3110 l-40 -5 -1 -712 c0 -392 2 -714 5 -714 25 -5 355 -3 363
2 8 5 11 172 11 563 0 306 4 556 9 556 4 0 8 -8 9 -17 0 -10 2 -25 4 -33 1 -8
12 -62 24 -120 12 -58 23 -116 26 -130 3 -14 7 -36 10 -50 3 -14 7 -36 10 -50
3 -14 14 -70 25 -125 11 -55 22 -109 24 -120 37 -186 88 -443 91 -455 2 -8 4
-17 4 -20 1 -3 84 -5 186 -5 l185 0 12 55 c16 75 15 71 22 110 3 19 22 112 41
205 20 94 39 184 42 200 2 17 15 80 28 140 13 61 38 180 55 265 17 85 33 156
35 159 3 2 5 -252 5 -565 l0 -569 200 0 200 0 0 215 c1 948 0 1213 -5 1218 -7
7 -643 7 -651 0 -3 -3 -27 -127 -55 -274 -27 -148 -52 -280 -54 -294 -3 -14
-12 -67 -22 -118 -9 -52 -20 -87 -24 -80 -4 7 -14 51 -24 98 -9 47 -18 96 -21
110 -3 14 -28 144 -56 290 -27 146 -52 266 -53 268 -5 6 -577 7 -620 2z"/>
<path d="M3489 2282 c-12 -2 -14 -104 -13 -712 0 -391 4 -713 7 -716 5 -5 124
-7 380 -4 l62 0 0 296 c0 163 2 297 6 299 3 3 16 -19 29 -48 13 -29 50 -108
83 -177 135 -286 155 -329 162 -349 5 -17 15 -21 48 -21 151 -2 490 -1 492 2
2 2 -55 107 -127 233 -71 127 -146 259 -165 295 -20 36 -39 70 -43 75 -5 6
-20 33 -35 60 -15 28 -33 60 -40 73 -12 21 1 46 152 305 168 287 223 384 223
389 0 5 -499 2 -504 -2 -2 -3 -64 -128 -137 -277 -73 -150 -135 -273 -138
-273 -4 0 -6 125 -6 277 l0 278 -211 0 c-116 0 -217 -1 -225 -3z"/>
</g>
</svg>
