<?xml version="1.0" standalone="no"?>
<!DOCTYPE svg PUBLIC "-//W3C//DTD SVG 20010904//EN"
 "http://www.w3.org/TR/2001/REC-SVG-20010904/DTD/svg10.dtd">
<svg version="1.0" xmlns="http://www.w3.org/2000/svg"
 width="844.000000pt" height="844.000000pt" viewBox="0 0 844.000000 844.000000"
 preserveAspectRatio="xMidYMid meet">
<metadata>
Created by potrace 1.11, written by Peter Selinger 2001-2013
</metadata>
<g transform="translate(0.000000,844.000000) scale(0.100000,-0.100000)"
fill="#000000" stroke="none">
<path d="M30 8422 c-7 -3 -10 -1412 -10 -4203 l0 -4199 43 -1 c332 -5 8340 0
8345 6 12 12 9 8395 -3 8396 -34 3 -8367 3 -8375 1z m8105 -4202 l0 -3925
-3917 0 c-2155 0 -3918 2 -3919 5 -5 24 -2 7836 3 7840 3 3 1767 5 3920 5
l3913 0 0 -3925z"/>
<path d="M1187 6984 c-1 -1 -76 -5 -167 -9 -91 -4 -187 -8 -215 -10 -102 -7
-201 -16 -225 -20 -14 -2 -57 -7 -95 -10 -91 -8 -103 -10 -111 -18 -4 -3 27
-7 67 -7 149 -1 339 -15 480 -35 20 -3 54 -8 75 -10 59 -7 93 -12 159 -24 33
-6 74 -14 90 -17 50 -9 244 -54 304 -70 31 -9 63 -17 71 -18 16 -3 214 -63
240 -73 8 -4 18 -7 23 -8 4 -2 9 -4 12 -5 3 -1 10 -4 15 -5 6 -1 11 -3 13 -5
1 -1 11 -3 22 -5 10 -2 28 -8 40 -13 11 -6 47 -20 80 -32 33 -12 69 -26 80
-31 11 -4 49 -20 85 -35 168 -68 502 -225 530 -250 8 -7 18 -13 23 -13 13 -1
72 -33 78 -43 3 -5 9 -9 13 -9 6 1 84 -39 116 -59 8 -5 58 -35 110 -66 162
-98 505 -328 605 -406 6 -5 46 -36 90 -69 83 -63 151 -117 169 -134 6 -6 29
-24 51 -40 22 -17 45 -34 51 -40 6 -5 32 -28 59 -50 27 -22 58 -49 71 -60 12
-11 43 -38 70 -60 26 -22 55 -47 63 -56 9 -8 68 -62 131 -120 180 -163 561
-547 735 -743 59 -66 201 -234 238 -281 26 -33 56 -69 66 -80 20 -20 31 -36
181 -235 130 -172 420 -605 420 -626 0 -3 15 -28 33 -57 18 -29 36 -59 40 -67
4 -8 17 -31 28 -50 53 -87 233 -453 276 -560 8 -19 18 -44 23 -55 18 -39 78
-190 85 -215 4 -14 13 -38 20 -55 7 -16 31 -91 54 -165 24 -74 45 -142 48
-150 3 -8 7 -22 8 -30 2 -8 11 -42 20 -75 9 -33 18 -69 20 -80 2 -11 11 -49
20 -85 8 -36 17 -74 19 -85 2 -11 7 -36 10 -55 35 -187 41 -226 50 -310 3 -25
8 -67 11 -93 13 -110 16 -143 15 -167 -1 -14 -1 -29 -1 -35 4 -34 10 -149 11
-200 1 -78 18 -53 25 37 2 35 5 63 5 63 1 0 3 14 5 30 1 17 6 64 10 105 4 41
8 100 10 130 2 30 6 111 10 180 21 348 3 880 -41 1225 -3 28 -7 59 -9 70 -13
108 -24 179 -45 307 -20 116 -51 266 -80 388 -11 47 -22 93 -25 103 -31 133
-123 436 -137 452 -4 5 -8 19 -8 30 0 12 -3 25 -7 29 -4 3 -8 14 -9 23 -2 10
-7 26 -12 38 -6 11 -15 36 -22 55 -7 19 -18 49 -25 65 -7 17 -36 86 -65 155
-54 130 -209 446 -240 490 -10 14 -19 30 -20 35 -2 6 -13 26 -25 45 -12 19
-30 50 -40 69 -9 19 -21 39 -26 45 -12 14 -139 209 -139 213 0 1 -7 11 -15 20
-8 10 -42 56 -77 103 -34 47 -65 87 -68 90 -3 3 -35 41 -70 85 -36 44 -81 97
-100 119 -66 74 -315 321 -379 376 -35 30 -69 60 -75 65 -111 99 -299 234
-591 423 -11 7 -28 15 -37 18 -10 4 -18 10 -18 15 0 5 -5 9 -11 9 -6 0 -41 18
-77 39 -134 78 -366 190 -552 266 -63 26 -124 51 -135 55 -31 14 -266 97 -305
108 -19 6 -66 20 -105 32 -77 23 -209 60 -239 66 -10 2 -33 8 -50 13 -17 6
-42 12 -56 15 -14 3 -56 12 -95 21 -38 9 -79 17 -90 19 -11 2 -39 8 -62 14
-24 5 -43 8 -43 5 0 -3 -6 0 -13 6 -8 6 -16 9 -19 6 -4 -4 -38 1 -127 19 -14
3 -47 8 -75 11 -28 3 -60 8 -71 11 -11 3 -36 7 -55 9 -19 2 -62 7 -95 12 -33
4 -79 8 -102 8 -24 0 -43 3 -43 6 0 3 -6 6 -12 6 -7 1 -51 4 -98 7 -47 4 -105
8 -130 10 -159 12 -695 27 -703 20z"/>
<path d="M837 4725 c-6 -19 -1 -490 5 -500 4 -6 93 -10 241 -10 l234 1 0 -613
c0 -337 3 -616 6 -620 6 -5 445 -8 527 -4 14 1 16 69 15 604 0 331 1 609 3
618 3 13 31 15 215 15 117 -1 224 1 238 2 l26 4 -1 256 -1 257 -752 0 c-504 0
-754 -3 -756 -10z"/>
<path d="M2071 3720 c-7 -6 -9 -1749 -1 -1751 3 -1 107 -2 233 -3 l227 -2 1
646 c0 355 0 668 -1 695 -2 54 14 54 24 0 6 -36 9 -51 46 -235 16 -80 31 -156
34 -170 3 -14 10 -50 16 -80 6 -30 13 -68 16 -85 2 -16 7 -38 10 -48 3 -11 7
-29 9 -40 1 -12 10 -60 19 -107 10 -47 19 -96 22 -110 3 -14 7 -33 10 -43 3
-10 7 -30 9 -45 2 -15 11 -61 19 -102 8 -41 18 -88 21 -105 2 -16 7 -41 10
-55 2 -14 7 -38 11 -55 12 -65 -7 -61 239 -61 247 0 232 -4 241 61 2 11 5 30
8 43 13 51 17 69 21 102 3 19 14 76 25 125 11 50 22 104 26 120 3 17 21 107
41 200 20 94 37 177 38 185 1 8 5 29 8 45 4 17 9 39 11 50 39 202 92 445 97
445 4 0 6 -308 5 -684 -1 -601 1 -685 14 -688 8 -2 119 -4 245 -4 l230 1 1
870 c1 479 -1 875 -3 880 -4 11 -789 12 -800 1 -4 -3 -8 -17 -10 -29 -2 -12
-8 -44 -13 -72 -6 -27 -13 -61 -15 -75 -3 -14 -7 -38 -10 -55 -2 -16 -7 -41
-9 -55 -3 -13 -8 -42 -11 -65 -3 -22 -8 -47 -10 -55 -2 -8 -7 -28 -10 -45 -2
-16 -7 -41 -10 -55 -2 -13 -7 -42 -11 -64 -3 -22 -8 -45 -11 -50 -3 -5 -7 -28
-8 -51 -1 -24 -5 -47 -8 -52 -4 -6 -9 -25 -11 -44 -3 -19 -7 -43 -10 -54 -2
-11 -7 -44 -11 -73 -7 -51 -27 -68 -30 -26 -1 15 -14 83 -20 104 -1 3 -5 25
-9 50 -5 25 -10 54 -12 65 -2 11 -6 31 -9 45 -3 14 -7 36 -11 50 -3 14 -7 39
-10 55 -2 17 -8 50 -13 75 -14 64 -23 108 -37 190 -3 14 -7 33 -10 43 -3 10
-7 30 -9 45 -2 15 -9 52 -15 82 -6 30 -13 65 -14 78 -2 13 -8 28 -14 34 -11
11 -786 19 -801 8z"/>
<path d="M4273 1829 l0 -879 41 0 c61 -1 425 -1 468 0 l38 0 2 373 3 372 25
-50 c13 -27 23 -53 22 -57 -1 -5 3 -8 8 -8 6 0 10 -4 10 -9 0 -5 28 -67 61
-137 34 -71 74 -156 89 -189 92 -199 140 -295 147 -295 14 -1 452 -1 551 -1
l93 1 -32 58 c-18 31 -37 66 -43 77 -6 11 -15 23 -21 27 -5 4 -6 8 -2 8 5 0
-1 12 -12 26 -12 15 -21 31 -21 35 0 5 -17 37 -38 71 -21 35 -57 97 -79 138
-46 85 -79 143 -102 180 -8 14 -16 27 -16 30 0 3 -8 16 -16 30 -30 47 -97 169
-110 199 -8 17 -17 31 -21 31 -5 0 -8 7 -8 16 0 13 12 37 67 129 7 11 16 29
22 41 5 11 15 27 23 35 7 8 24 37 38 64 14 28 28 52 33 53 4 2 7 8 7 13 0 5
19 39 42 76 22 38 52 88 66 113 14 25 33 59 43 75 58 97 129 224 129 230 0 1
-138 2 -307 2 l-308 -2 -57 -115 c-31 -63 -108 -218 -170 -345 l-113 -230 -5
345 -5 345 -271 1 -271 2 0 -879z"/>
<path d="M6890 410 c0 -11 2 -20 4 -20 2 0 6 9 9 20 3 11 1 20 -4 20 -5 0 -9
-9 -9 -20z"/>
</g>
</svg>
