<?xml version="1.0" encoding="utf-8"?>
<!-- Generator: Adobe Illustrator 24.0.2, SVG Export Plug-In . SVG Version: 6.00 Build 0)  -->
<svg version="1.1" id="Слой_1" xmlns="http://www.w3.org/2000/svg" xmlns:xlink="http://www.w3.org/1999/xlink" x="0px" y="0px"
	 viewBox="0 0 50 50" style="enable-background:new 0 0 50 50;" xml:space="preserve">
<style type="text/css">
	.st0{fill:#EE732C;}
</style>
<path class="st0" d="M0,0v50h50V0H0z M48.4,48.4H1.6V9c0,0,0,0,0,0l0,0V1.6h46.7V48.4z"/>
<path class="st0" d="M1.6,9C1.6,9,1.6,9,1.6,9L1.6,9L1.6,9z"/>
<path class="st0" d="M40.9,48.1c1.4-10.3-0.5-22.7-8.5-30.6C24.4,9.5,12,7.6,1.6,9v0c10-0.1,19,5.3,26.6,12.8
	C35.8,29.2,41.1,38.1,40.9,48.1z"/>
<path class="st0" d="M13.9,21.9h-9V25h2.9v7.4H11V25h2.9V21.9z"/>
<path class="st0" d="M18.2,33.7L18.2,33.7L17,28h-4.8v10.5H15v-8.2H15l1.6,8.2h2.7l1.7-8.2h0.1v8.2h2.9V28h-4.8L18.2,33.7z"/>
<path class="st0" d="M34.4,34h-3.7l-2,4.1h0V34h-3.3v10.5h3.3V40h0l2.1,4.4h3.9l-3.1-5.6L34.4,34z"/>
</svg>
